<svg width="280" height="280" viewBox="0 0 280 280" fill="none" xmlns="http://www.w3.org/2000/svg">
<path d="M221.935 198.065C216.471 192.831 211.153 187.447 205.987 181.918C201.647 177.508 199.033 174.3 199.033 174.3L166.367 158.702C179.445 143.869 186.663 124.775 186.667 105C186.667 59.9784 150.033 23.3334 105 23.3334C59.9666 23.3334 23.3333 59.9784 23.3333 105C23.3333 150.022 59.9666 186.667 105 186.667C125.568 186.667 144.317 178.967 158.702 166.378L174.3 199.045C174.3 199.045 177.508 201.658 181.918 205.998C186.433 210.233 192.372 215.962 198.065 221.947L213.908 238.187L220.955 245.723L245.7 220.978L238.163 213.932C233.742 209.592 227.838 203.828 221.935 198.065V198.065ZM105 163.333C72.8349 163.333 46.6666 137.165 46.6666 105C46.6666 72.835 72.8349 46.6667 105 46.6667C137.165 46.6667 163.333 72.835 163.333 105C163.333 137.165 137.165 163.333 105 163.333Z" fill="black"/>
</svg>
